Missing keys (5): ['frontend.mel_spectrogram.spectrogram.window', 'frontend.mel_spectrogram.mel_scale.fb', 'encoder.pos_enc.pe', 'encoder.pos_enc._current_position', 'decoder.embed.1.pe']...
Unexpected keys (2): ['normalize.mean', 'normalize.std']...
ffmpeg version 6.1.1-3ubuntu5 Copyright (c) 2000-2023 the FFmpeg developers
  built with gcc 13 (Ubuntu 13.2.0-23ubuntu3)
  configuration: --prefix=/usr --extra-version=3ubuntu5 --toolchain=hardened --libdir=/usr/lib/x86_64-linux-gnu --incdir=/usr/include/x86_64-linux-gnu --arch=amd64 --enable-gpl --disable-stripping --disable-omx --enable-gnutls --enable-libaom --enable-libass --enable-libbs2b --enable-libcaca --enable-libcdio --enable-libcodec2 --enable-libdav1d --enable-libflite --enable-libfontconfig --enable-libfreetype --enable-libfribidi --enable-libglslang --enable-libgme --enable-libgsm --enable-libharfbuzz --enable-libmp3lame --enable-libmysofa --enable-libopenjpeg --enable-libopenmpt --enable-libopus --enable-librubberband --enable-libshine --enable-libsnappy --enable-libsoxr --enable-libspeex --enable-libtheora --enable-libtwolame --enable-libvidstab --enable-libvorbis --enable-libvpx --enable-libwebp --enable-libx265 --enable-libxml2 --enable-libxvid --enable-libzimg --enable-openal --enable-opencl --enable-opengl --disable-sndio --enable-libvpl --disable-libmfx --enable-libdc1394 --enable-libdrm --enable-libiec61883 --enable-chromaprint --enable-frei0r --enable-ladspa --enable-libbluray --enable-libjack --enable-libpulse --enable-librabbitmq --enable-librist --enable-libsrt --enable-libssh --enable-libsvtav1 --enable-libx264 --enable-libzmq --enable-libzvbi --enable-lv2 --enable-sdl2 --enable-libplacebo --enable-librav1e --enable-pocketsphinx --enable-librsvg --enable-libjxl --enable-shared
  libavutil      58. 29.100 / 58. 29.100
  libavcodec     60. 31.102 / 60. 31.102
  libavformat    60. 16.100 / 60. 16.100
  libavdevice    60.  3.100 / 60.  3.100
  libavfilter     9. 12.100 /  9. 12.100
  libswscale      7.  5.100 /  7.  5.100
  libswresample   4. 12.100 /  4. 12.100
  libpostproc    57.  3.100 / 57.  3.100
Input #0, mov,mp4,m4a,3gp,3g2,mj2, from 'Neujahrsansprache_5s.mp4':
  Metadata:
    major_brand     : isom
    minor_version   : 512
    compatible_brands: isomiso2avc1mp41
    encoder         : Lavf60.16.100
  Duration: 00:00:05.00, start: 0.000000, bitrate: 927 kb/s
  Stream #0:0[0x1](eng): Video: h264 (High) (avc1 / 0x31637661), yuv420p(progressive), 1280x720 [SAR 1:1 DAR 16:9], 857 kb/s, 25 fps, 25 tbr, 12800 tbn (default)
    Metadata:
      handler_name    : VideoHandler
      vendor_id       : [0][0][0][0]
      encoder         : Lavc60.31.102 libx264
  Stream #0:1[0x2](eng): Audio: aac (LC) (mp4a / 0x6134706D), 48000 Hz, mono, fltp, 61 kb/s (default)
    Metadata:
      handler_name    : SoundHandler
      vendor_id       : [0][0][0][0]
Stream mapping:
  Stream #0:1 -> #0:0 (aac (native) -> pcm_s16le (native))
Press [q] to stop, [?] for help
Output #0, wav, to '.tmp/a698e31a73c8885e8055317110d1aa784cf5dce1.wav':
  Metadata:
    major_brand     : isom
    minor_version   : 512
    compatible_brands: isomiso2avc1mp41
    ISFT            : Lavf60.16.100
  Stream #0:0(eng): Audio: pcm_s16le ([1][0][0][0] / 0x0001), 16000 Hz, mono, s16, 256 kb/s (default)
    Metadata:
      handler_name    : SoundHandler
      vendor_id       : [0][0][0][0]
      encoder         : Lavc60.31.102 pcm_s16le
size=       0kB time=00:00:00.00 bitrate=N/A speed=   0x    [out#0/wav @ 0x64ce32cea940] video:0kB audio:157kB subtitle:0kB other streams:0kB global headers:0kB muxing overhead: 0.048621%
size=     157kB time=00:00:05.01 bitrate= 256.2kbits/s speed= 489x    
Using model:  speechcatcher/speechcatcher_german_espnet_streaming_transformer_26k_train_size_xl_raw_de_bpe1024
Using 40 processes for decoding. You can change this setting with the -n parameter option.
Transcribing:   0%|          | 0/10 [00:00<?, ?it/s]Transcribing:  10%|█         | 1/10 [00:00<00:06,  1.49it/s]concurrent.futures.process._RemoteTraceback: 
"""
Traceback (most recent call last):
  File "/usr/lib/python3.12/concurrent/futures/process.py", line 263, in _process_worker
    r = call_item.fn(*call_item.args, **call_item.kwargs)
        ^^^^^^^^^^^^^^^^^^^^^^^^^^^^^^^^^^^^^^^^^^^^^^^^^
  File "/home/ben/speechcatcher/speechcatcher/speechcatcher.py", line 454, in recognize_segment
    segment_text, prev_lines = batch_recognize_inner_loop(speech_chunk, i, prev_lines,
                               ^^^^^^^^^^^^^^^^^^^^^^^^^^^^^^^^^^^^^^^^^^^^^^^^^^^^^^^
  File "/home/ben/speechcatcher/speechcatcher/speechcatcher.py", line 477, in batch_recognize_inner_loop
    results = speech2text_global(speech=speech_chunk, is_final=is_final)
              ^^^^^^^^^^^^^^^^^^^^^^^^^^^^^^^^^^^^^^^^^^^^^^^^^^^^^^^^^^
  File "/home/ben/speechcatcher/speechcatcher/speech2text_streaming.py", line 413, in __call__
    self.beam_state = self.beam_search.process_block(
                      ^^^^^^^^^^^^^^^^^^^^^^^^^^^^^^^
  File "/home/ben/speechcatcher/speechcatcher/beam_search/beam_search.py", line 411, in process_block
    scores, new_states_dict = self.beam_search.batch_score_hypotheses(
                              ^^^^^^^^^^^^^^^^^^^^^^^^^^^^^^^^^^^^^^^^
  File "/home/ben/speechcatcher/speechcatcher/beam_search/beam_search.py", line 170, in batch_score_hypotheses
    full_scores[i, top_k_ids[i]] = partial_scores[i]
    ~~~~~~~~~~~^^^^^^^^^^^^^^^^^
RuntimeError: shape mismatch: value tensor of shape [1024] cannot be broadcast to indexing result of shape [40]
"""

The above exception was the direct cause of the following exception:

Traceback (most recent call last):
  File "<frozen runpy>", line 198, in _run_module_as_main
  File "<frozen runpy>", line 88, in _run_code
  File "/home/ben/speechcatcher/speechcatcher/speechcatcher.py", line 705, in <module>
    main()
  File "/home/ben/speechcatcher/speechcatcher/speechcatcher.py", line 700, in main
    recognize_file(speech2text, args.inputfile, quiet=quiet, progress=progress, num_processes=num_processes)
  File "/home/ben/speechcatcher/speechcatcher/speechcatcher.py", line 250, in recognize_file
    complete_text, auxiliary_info = recognize(speech2text, raw_speech_data, rate, chunk_length, num_processes, progress, quiet)
                                    ^^^^^^^^^^^^^^^^^^^^^^^^^^^^^^^^^^^^^^^^^^^^^^^^^^^^^^^^^^^^^^^^^^^^^^^^^^^^^^^^^^^^^^^^^^^
  File "/home/ben/speechcatcher/speechcatcher/speechcatcher.py", line 365, in recognize
    paragraphs_raw.append(r.result())
                          ^^^^^^^^^^
  File "/usr/lib/python3.12/concurrent/futures/_base.py", line 449, in result
    return self.__get_result()
           ^^^^^^^^^^^^^^^^^^^
  File "/usr/lib/python3.12/concurrent/futures/_base.py", line 401, in __get_result
    raise self._exception
RuntimeError: shape mismatch: value tensor of shape [1024] cannot be broadcast to indexing result of shape [40]
